<?xml version="1.0" standalone="no"?>
<!DOCTYPE svg PUBLIC "-//W3C//DTD SVG 20010904//EN"
 "http://www.w3.org/TR/2001/REC-SVG-20010904/DTD/svg10.dtd">
<svg version="1.0" xmlns="http://www.w3.org/2000/svg"
 width="512.000000pt" height="512.000000pt" viewBox="0 0 512.000000 512.000000"
 preserveAspectRatio="xMidYMid meet">

<g transform="translate(0.000000,512.000000) scale(0.100000,-0.100000)"
fill="#000000" stroke="none">
<path d="M830 4083 c0 -47 -15 -40 135 -58 70 -8 150 -49 173 -88 41 -67 42
-93 42 -1350 0 -1043 -2 -1221 -15 -1276 -34 -142 -67 -164 -312 -207 -20 -4
-23 -11 -23 -47 l0 -42 430 0 430 0 0 42 c0 48 1 47 -107 58 -144 14 -236 70
-262 160 -28 98 -31 242 -29 1378 l3 1167 549 -1415 550 -1416 40 3 40 3 517
1390 c285 765 520 1395 523 1400 2 6 4 -555 3 -1245 -2 -984 -5 -1263 -15
-1292 -28 -82 -100 -120 -252 -136 l-75 -7 -3 -45 -3 -45 566 0 565 0 0 42 c0
48 1 47 -109 58 -138 14 -197 51 -227 143 -18 54 -19 115 -19 1312 0 1166 1
1259 17 1311 21 67 67 112 128 129 30 8 175 29 208 30 1 0 2 21 2 47 l0 46
-142 -6 c-79 -4 -253 -7 -388 -7 l-245 0 -469 -1260 c-258 -693 -473 -1257
-477 -1253 -6 6 -898 2348 -950 2493 l-9 25 -395 0 -395 0 0 -42z"/>
</g>
</svg>
